<svg xmlns="http://www.w3.org/2000/svg" viewBox="0 0 4555.48 2834.65"><defs><style>.cls-1{fill:#fff;}</style></defs><g id="Layer_2" data-name="Layer 2"><g id="Sucafina_VECT" data-name="Sucafina VECT"><path class="cls-1" d="M258.27,2834.65C113.32,2834.65,4,2731.87,0,2588.24c0-13.17,1.32-23.73,17.13-23.73h90.93c14.49,0,21.08,5.28,22.39,18.46,7.91,61.93,50.08,127.82,127.82,127.82,65.89,0,113.32-47.44,116-116C384.77,2406.4,15.81,2298.34,15.81,2048c0-127.81,93.56-225.33,231.92-225.33,145,0,226.65,102.8,233.23,225.33,0,13.19-1.31,23.73-17.12,23.73H372.92c-14.5,0-21.09-4-22.41-18.45-10.54-55.35-40.85-106.74-98.82-106.74-56.67,0-96.2,46.13-93.56,101.46,11.85,150.23,357.09,282,357.09,539C515.22,2746.37,383.45,2834.65,258.27,2834.65Z"/><path class="cls-1" d="M1150.37,1862.18v677.3c0,183.16-88.29,295.17-251.68,295.17-162.08,0-250.37-112-250.37-295.17v-677.3c0-19.76,7.91-27.67,27.67-27.67h85.66c19.77,0,27.67,7.91,27.67,27.67v677.3c0,102.79,40.85,163.4,109.37,163.4,69.84,0,110.69-60.61,110.69-163.4v-677.3c0-19.76,7.9-27.67,27.67-27.67h85.65C1142.46,1834.51,1150.37,1842.42,1150.37,1862.18Z"/><path class="cls-1" d="M1308.51,2539.48V2117.81c0-183.15,88.29-295.17,250.36-295.17,152.86,0,234.56,101.47,242.46,231.93,0,11.85-1.32,23.72-17.13,23.72H1688c-14.5,0-21.08-5.28-22.4-19.78-10.54-56.65-44.8-104.09-105.42-104.09-69.84,0-110.69,61.93-110.69,163.39v421.67c0,101.46,40.85,163.4,110.69,163.4,60.62,0,94.88-47.44,105.42-104.11,1.32-14.48,7.9-19.76,22.4-19.76h96.19c15.81,0,17.13,11.86,17.13,23.73-7.9,130.44-89.6,231.91-242.46,231.91C1396.8,2834.65,1308.51,2722.64,1308.51,2539.48Z"/><path class="cls-1" d="M2055.66,1860.86c4-22.4,13.18-26.35,34.26-26.35h68.53c21.08,0,30.31,4,35.58,26.35l208.19,935.58c5.28,19.76-5.27,26.35-19.76,26.35h-89.61c-17.13,0-25-6.59-30.3-26.35l-33-156.81c-3.95-15.82-9.22-18.45-26.35-18.45H2045.13c-17.13,0-22.41,2.63-26.36,18.45l-32.94,156.81c-5.28,19.76-13.18,26.35-30.31,26.35h-89.61c-14.49,0-25-6.59-19.76-26.35ZM2058.3,2496h133.09c6.59,0,11.86-3.95,10.54-14.49l-69.84-353.15c-1.31-9.22-14.49-9.22-15.81,0l-68.52,353.15C2045.13,2492.05,2050.4,2496,2058.3,2496Z"/><path class="cls-1" d="M2905.61,1862.18V1932c0,19.78-7.9,27.68-27.67,27.68H2684.23c-19.76,0-25,5.27-25,25v242.45c0,19.78,5.27,25,25,25h127.82c19.77,0,27.68,7.9,27.68,27.68v71.15c0,19.76-7.91,27.67-27.68,27.67H2684.23c-19.76,0-25,5.27-25,25v391.37c0,19.76-7.91,27.67-27.68,27.67h-85.65c-19.76,0-27.66-7.91-27.66-27.67V1862.18c0-19.76,7.9-27.67,27.66-27.67h332.07C2897.71,1834.51,2905.61,1842.42,2905.61,1862.18Z"/><path class="cls-1" d="M3038.71,1862.18c0-19.76,7.9-27.67,27.67-27.67H3152c19.77,0,27.68,7.91,27.68,27.67v932.94c0,19.76-7.91,27.67-27.68,27.67h-85.65c-19.77,0-27.67-7.91-27.67-27.67Z"/><path class="cls-1" d="M3882,1862.18v932.94c0,19.76-7.9,27.67-27.67,27.67h-64.56c-21.08,0-29-6.59-38.21-27.67l-241.15-589c-3.95-9.22-14.49-6.59-14.49,2.64v586.38c0,19.76-7.91,27.67-27.68,27.67h-85.65c-19.77,0-27.67-7.91-27.67-27.67V1862.18c0-19.76,7.9-27.67,27.67-27.67h64.57c21.08,0,29,6.59,38.21,27.67l241.15,589c4,9.22,14.49,6.59,14.49-2.63V1862.18c0-19.76,7.91-27.67,27.68-27.67h85.64C3874.14,1834.51,3882,1842.42,3882,1862.18Z"/><path class="cls-1" d="M4207.55,1860.86c3.95-22.4,13.17-26.35,34.25-26.35h68.53c21.08,0,30.31,4,35.58,26.35l208.19,935.58c5.28,19.76-5.27,26.35-19.76,26.35h-89.61c-17.13,0-25-6.59-30.3-26.35l-33-156.81c-3.95-15.82-9.22-18.45-26.35-18.45H4197c-17.13,0-22.41,2.63-26.36,18.45l-32.94,156.81c-5.28,19.76-13.18,26.35-30.31,26.35h-89.61c-14.49,0-25-6.59-19.76-26.35Zm2.63,635.14h133.09c6.59,0,11.86-3.95,10.54-14.49L4284,2128.36c-1.31-9.22-14.49-9.22-15.81,0l-68.52,353.15C4197,2492.05,4202.28,2496,4210.18,2496Z"/></g><g id="Symbole"><path class="cls-1" d="M3053.86,776.14c0,428.65-347.49,776.14-776.14,776.14s-776.14-347.49-776.14-776.14S1849.07,0,2277.72,0,3053.86,347.49,3053.86,776.14ZM2277.75,67.65c-391.31,0-708.53,317.21-708.53,708.52s317.22,708.53,708.53,708.53,708.52-317.22,708.52-708.53S2669.06,67.65,2277.75,67.65Z"/><path class="cls-1" d="M2461.57,954c41.52-275.51,209.77-397.91,306.93-431.35-154.2-82.68-385.17-11.73-549.77,180.22-186.47,217.45-217.08,507.69-68.38,648.27a265.13,265.13,0,0,0,55.15,40l16.51-4.5C2292.31,1367.42,2419.51,1233,2461.57,954Z"/><path class="cls-1" d="M2830.6,568.75l-14.84.76c-62.38,3.2-257.51,106.25-300.77,393.33-37,245.45-137.95,398.9-231.35,456.77,147.59,30.53,334.34-45.29,473.58-207.66C2941.52,997,2973.44,711.11,2830.6,568.75Z"/><path class="cls-1" d="M2135.08,260.24c-56.95,69.35-78.55,159.89-75.8,202.83,6.55,84.46,62.92,137.57,75.81,237.63,56.95-69.34,78.55-163.91,75.8-206.85C2204.34,409.39,2148,360.31,2135.08,260.24Z"/><path class="cls-1" d="M2114.17,1393.31c-85.22-80.56-124-202.65-109.07-343.76,7.39-70,27.8-140.63,59.4-208.4C1922.52,714.25,1721.18,680.88,1630,670q-3.37,34.9-3.41,70.75c0,330.42,221.33,607.34,516.43,676.55A322,322,0,0,1,2114.17,1393.31Z"/><path class="cls-1" d="M2081.19,782.09c1.93-53-3.57-98.25-12.82-127.23-43.45-129.94-151.33-182.69-210.86-334.4C1801.77,440,1797.23,573.84,1812,648.22,1918.64,678.49,2009.72,723.66,2081.19,782.09Z"/></g></g></svg>