<?xml version="1.0" encoding="utf-8"?>
<!-- Generator: Adobe Illustrator 24.0.1, SVG Export Plug-In . SVG Version: 6.00 Build 0)  -->
<svg version="1.1" id="Calque_1" xmlns="http://www.w3.org/2000/svg" xmlns:xlink="http://www.w3.org/1999/xlink" x="0px" y="0px"
	 viewBox="0 0 340.2 232.4" style="enable-background:new 0 0 340.2 232.4;" xml:space="preserve">
<g id="Sucafina_VECT">
	<g>
		<path d="M32.2,212.9c-9.9,0-17.4-7-17.6-16.8c0-0.9,0.1-1.6,1.2-1.6h6.2c1,0,1.4,0.4,1.5,1.3c0.5,4.2,3.4,8.7,8.7,8.7
			c4.5,0,7.7-3.2,7.9-7.9c0.7-12.9-24.5-20.2-24.5-37.3c0-8.7,6.4-15.4,15.8-15.4c9.9,0,15.5,7,15.9,15.4c0,0.9-0.1,1.6-1.2,1.6H40
			c-1,0-1.4-0.3-1.5-1.3c-0.7-3.8-2.8-7.3-6.7-7.3c-3.9,0-6.6,3.1-6.4,6.9c0.8,10.3,24.4,19.3,24.4,36.8
			C49.7,206.8,40.7,212.9,32.2,212.9z"/>
		<path d="M93.1,146.5v31.4v14.8c0,12.5-6,20.2-17.2,20.2c-11.1,0-17.1-7.6-17.1-20.2V171v-24.6c0-1.4,0.5-1.9,1.9-1.9h5.8
			c1.3,0,1.9,0.5,1.9,1.9v30.6v15.7c0,7,2.8,11.2,7.5,11.2c4.8,0,7.6-4.1,7.6-11.2v-21.4v-24.8c0-1.4,0.5-1.9,1.9-1.9h5.8
			C92.5,144.6,93.1,145.1,93.1,146.5z"/>
		<path d="M103.9,192.7v-28.8c0-12.5,6-20.2,17.1-20.2c10.4,0,16,6.9,16.6,15.8c0,0.8-0.1,1.6-1.2,1.6h-6.6c-1,0-1.4-0.4-1.5-1.4
			c-0.7-3.9-3.1-7.1-7.2-7.1c-4.8,0-7.6,4.2-7.6,11.2v28.8c0,6.9,2.8,11.2,7.6,11.2c4.1,0,6.5-3.2,7.2-7.1c0.1-1,0.5-1.4,1.5-1.4
			h6.6c1.1,0,1.2,0.8,1.2,1.6c-0.5,8.9-6.1,15.8-16.6,15.8C109.9,212.9,103.9,205.2,103.9,192.7z"/>
		<path d="M154.9,146.4c0.3-1.5,0.9-1.8,2.3-1.8h4.7c1.4,0,2.1,0.3,2.4,1.8l14.2,63.9c0.4,1.4-0.4,1.8-1.4,1.8h-6.1
			c-1.2,0-1.7-0.4-2.1-1.8l-2.2-10.7c-0.3-1.1-0.6-1.3-1.8-1.3h-10.8c-1.2,0-1.5,0.2-1.8,1.3l-2.2,10.7c-0.4,1.4-0.9,1.8-2.1,1.8
			H142c-1,0-1.7-0.4-1.4-1.8L154.9,146.4z M155.1,189.7h9.1c0.4,0,0.8-0.3,0.7-1l-4.8-24.1c-0.1-0.6-1-0.6-1.1,0l-4.7,24.1
			C154.2,189.5,154.6,189.7,155.1,189.7z"/>
		<path d="M213,146.5v4.8c0,1.4-0.5,1.9-1.9,1.9h-13.2c-1.4,0-1.7,0.4-1.7,1.7v16.6c0,1.4,0.4,1.7,1.7,1.7h8.7
			c1.4,0,1.9,0.5,1.9,1.9v4.9c0,1.4-0.5,1.9-1.9,1.9h-8.7c-1.4,0-1.7,0.4-1.7,1.7v26.7c0,1.4-0.5,1.9-1.9,1.9h-5.9
			c-1.4,0-1.9-0.5-1.9-1.9v-63.7c0-1.4,0.5-1.9,1.9-1.9h22.7C212.4,144.6,213,145.1,213,146.5z"/>
		<path d="M222.1,146.5c0-1.4,0.5-1.9,1.9-1.9h5.9c1.4,0,1.9,0.5,1.9,1.9v63.7c0,1.4-0.5,1.9-1.9,1.9h-5.9c-1.4,0-1.9-0.5-1.9-1.9
			V146.5z"/>
		<path d="M279.6,146.5v63.7c0,1.4-0.5,1.9-1.9,1.9h-4.4c-1.4,0-2-0.4-2.6-1.9l-16.5-40.2c-0.3-0.6-1-0.4-1,0.2v40
			c0,1.4-0.5,1.9-1.9,1.9h-5.9c-1.4,0-1.9-0.5-1.9-1.9v-63.7c0-1.4,0.5-1.9,1.9-1.9h4.4c1.4,0,2,0.4,2.6,1.9l16.5,40.2
			c0.3,0.6,1,0.4,1-0.2v-40c0-1.4,0.5-1.9,1.9-1.9h5.8C279.1,144.6,279.6,145.1,279.6,146.5z"/>
		<path d="M301.9,146.4c0.3-1.5,0.9-1.8,2.3-1.8h4.7c1.4,0,2.1,0.3,2.4,1.8l14.2,63.9c0.4,1.4-0.4,1.8-1.4,1.8h-6.1
			c-1.2,0-1.7-0.4-2.1-1.8l-2.2-10.7c-0.3-1.1-0.6-1.3-1.8-1.3h-10.8c-1.2,0-1.5,0.2-1.8,1.3l-2.2,10.7c-0.4,1.4-0.9,1.8-2.1,1.8
			h-6.1c-1,0-1.7-0.4-1.4-1.8L301.9,146.4z M302.1,189.7h9.1c0.5,0,0.8-0.3,0.7-1l-4.8-24.1c-0.1-0.6-1-0.6-1.1,0l-4.7,24.1
			C301.2,189.5,301.5,189.7,302.1,189.7z"/>
	</g>
</g>
<g id="Symbole">
	<g>
		<g>
			<path d="M223.1,72.3c0,29.3-23.7,53-53,53s-53-23.7-53-53s23.7-53,53-53S223.1,43,223.1,72.3z M170.1,23.9
				c-26.7,0-48.4,21.7-48.4,48.4s21.7,48.4,48.4,48.4s48.4-21.7,48.4-48.4S196.8,23.9,170.1,23.9z"/>
			<path d="M182.6,84.4c2.8-18.8,14.3-27.2,21-29.5c-10.5-5.6-26.3-0.8-37.5,12.3c-12.7,14.9-14.8,34.7-4.7,44.3
				c1.2,1.1,2.4,2,3.8,2.7l1.1-0.3C171.1,112.7,179.8,103.5,182.6,84.4z"/>
			<path d="M207.8,58.1l-1,0.1c-4.3,0.2-17.6,7.3-20.5,26.9c-2.5,16.8-9.4,27.2-15.8,31.2c10.1,2.1,22.8-3.1,32.3-14.2
				C215.4,87.4,217.6,67.8,207.8,58.1z"/>
		</g>
		<g>
			<path d="M160.3,37c-3.9,4.7-5.4,10.9-5.2,13.9c0.4,5.8,4.3,9.4,5.2,16.2c3.9-4.7,5.4-11.2,5.2-14.1
				C165.1,47.2,161.2,43.9,160.3,37z"/>
			<path d="M158.9,114.4c-5.8-5.5-8.5-13.8-7.4-23.5c0.5-4.8,1.9-9.6,4.1-14.2c-9.7-8.7-23.4-10.9-29.7-11.7
				c-0.2,1.6-0.2,3.2-0.2,4.8c0,22.6,15.1,41.5,35.3,46.2C160.2,115.6,159.5,115,158.9,114.4z"/>
			<path d="M156.7,72.7c0.1-3.6-0.2-6.7-0.9-8.7c-3-8.9-10.3-12.5-14.4-22.8c-3.8,8.2-4.1,17.3-3.1,22.4
				C145.6,65.6,151.8,68.7,156.7,72.7z"/>
		</g>
	</g>
</g>
</svg>
